<?xml version="1.0" standalone="no"?>
<!DOCTYPE svg PUBLIC "-//W3C//DTD SVG 20010904//EN"
 "http://www.w3.org/TR/2001/REC-SVG-20010904/DTD/svg10.dtd">
<svg version="1.0" xmlns="http://www.w3.org/2000/svg"
 width="1080.000000pt" height="1045.000000pt" viewBox="0 0 1080.000000 1045.000000"
 preserveAspectRatio="xMidYMid meet">

<g transform="translate(0.000000,1045.000000) scale(0.100000,-0.100000)"
fill="#000000" stroke="none">
<path d="M1 10445 c7 -6 9750 -7 9757 0 3 3 -2192 5 -4878 5 -2686 0 -4881 -2
-4879 -5z"/>
<path d="M9998 10443 c78 -2 206 -2 285 0 78 1 14 3 -143 3 -157 0 -221 -2
-142 -3z"/>
<path d="M10515 10440 c4 -6 63 -10 146 -10 86 0 139 4 139 10 0 6 -55 10
-146 10 -94 0 -143 -4 -139 -10z"/>
<path d="M5300 10313 c-8 -3 -18 -10 -21 -16 -8 -12 -139 -33 -289 -46 -63 -6
-140 -17 -170 -25 -64 -17 -279 -46 -342 -46 -72 0 -134 -37 -218 -131 -41
-46 -89 -99 -107 -119 -95 -106 -101 -115 -107 -165 -11 -85 -26 -818 -18
-849 12 -44 32 -52 94 -38 53 11 196 32 363 52 50 6 115 17 145 25 30 8 114
19 185 25 128 10 222 24 280 41 17 4 87 15 157 24 154 18 174 25 181 62 4 15
9 139 13 275 7 225 6 249 -10 273 -13 20 -23 25 -39 21 -12 -3 -89 -13 -172
-21 -82 -9 -204 -27 -270 -40 -66 -13 -157 -27 -202 -31 -46 -3 -87 -12 -92
-18 -13 -16 -20 -126 -10 -153 8 -21 15 -23 76 -23 38 1 100 5 138 11 173 24
159 25 173 -13 15 -43 15 -76 1 -134 -14 -54 -26 -58 -219 -79 -74 -7 -166
-20 -205 -28 -124 -26 -140 -28 -159 -14 -22 16 -35 75 -31 140 2 29 7 171 10
317 4 172 11 272 18 286 23 41 78 95 112 110 19 8 53 14 75 14 22 0 93 11 158
26 172 37 216 40 241 15 12 -12 21 -33 22 -48 2 -74 6 -104 16 -114 21 -21
143 -13 276 18 105 24 107 28 107 244 l0 179 -72 -1 c-40 0 -80 -3 -88 -6z"/>
<path d="M6240 10197 c-31 -18 -71 -42 -90 -54 -19 -13 -40 -23 -46 -23 -6 0
-19 -9 -30 -21 -10 -12 -37 -30 -59 -41 -22 -12 -63 -41 -92 -65 -46 -39 -53
-51 -64 -101 -6 -31 -22 -80 -34 -108 -13 -28 -28 -77 -34 -109 -6 -31 -20
-72 -31 -89 -11 -18 -26 -64 -34 -103 -9 -39 -24 -88 -35 -110 -11 -21 -25
-60 -32 -88 -6 -27 -19 -71 -29 -97 -21 -56 -16 -92 16 -107 57 -26 313 -43
338 -22 23 19 56 94 72 163 18 76 55 157 83 183 20 17 27 18 99 7 42 -7 127
-17 187 -22 307 -29 346 -59 276 -212 -15 -35 -34 -98 -41 -141 -18 -107 -20
-106 170 -124 l152 -14 33 25 c27 21 36 37 45 83 7 32 25 88 40 125 16 37 32
88 36 114 4 27 18 69 31 95 13 26 27 69 32 96 6 26 21 73 34 103 13 30 29 79
36 108 6 29 20 70 31 92 11 22 27 70 35 107 7 38 21 82 30 100 24 47 30 97 13
110 -27 21 -116 44 -213 54 -154 17 -292 36 -380 53 -44 9 -127 21 -185 27
-58 6 -141 17 -186 25 -105 18 -109 18 -174 -19z m440 -212 c116 -15 186 -31
231 -56 27 -14 24 -59 -6 -123 -14 -29 -30 -80 -36 -112 -13 -73 -29 -104 -70
-138 -34 -29 -49 -29 -154 0 -27 7 -106 18 -175 24 -171 14 -226 27 -245 53
-19 27 -19 66 0 103 8 16 22 59 31 94 17 71 53 118 114 150 45 24 141 26 310
5z"/>
<path d="M3482 9980 c-18 -4 -41 -14 -50 -23 -9 -8 -41 -22 -71 -32 -30 -10
-75 -31 -100 -46 -25 -16 -51 -29 -59 -29 -8 0 -40 -13 -71 -29 -103 -54 -230
-111 -244 -111 -8 0 -29 -10 -48 -22 -19 -13 -52 -29 -74 -37 -22 -7 -56 -24
-75 -36 -19 -13 -53 -28 -75 -34 -53 -15 -107 -65 -130 -121 -10 -25 -24 -52
-31 -60 -6 -8 -19 -37 -28 -63 -9 -26 -25 -60 -36 -75 -24 -32 -58 -147 -54
-182 6 -66 43 -229 57 -257 9 -17 23 -73 31 -123 9 -50 22 -105 31 -123 8 -17
23 -69 32 -116 21 -112 55 -202 85 -224 22 -17 25 -17 87 8 35 13 71 31 80 39
9 7 42 21 73 30 47 13 61 22 74 49 15 28 16 41 5 105 -7 41 -24 103 -37 138
-13 36 -24 86 -24 113 l0 49 65 41 c35 23 72 41 80 41 9 0 46 16 83 35 37 19
87 44 112 55 25 11 52 24 60 29 8 5 37 16 64 24 38 12 55 13 75 4 38 -17 48
-35 61 -107 16 -86 34 -145 60 -199 20 -39 24 -43 51 -37 15 3 46 16 66 30 21
13 56 29 78 35 22 7 65 26 95 45 l55 33 -2 75 c-2 51 -11 99 -28 145 -13 39
-32 105 -40 149 -9 43 -25 102 -35 129 -10 28 -22 70 -25 95 -9 59 -24 117
-42 159 -9 18 -22 72 -30 120 -8 47 -25 113 -38 146 -13 33 -26 81 -30 107 -4
32 -13 51 -25 58 -10 5 -20 10 -22 9 -2 -1 -18 -5 -36 -9z m-250 -392 c28 -49
61 -153 78 -250 11 -60 10 -71 -6 -104 -15 -30 -29 -41 -69 -55 -27 -9 -66
-25 -85 -37 -19 -11 -53 -25 -75 -32 -22 -7 -52 -21 -67 -32 -15 -10 -46 -25
-70 -33 -24 -9 -64 -26 -89 -40 -26 -14 -54 -23 -62 -20 -14 6 -37 46 -37 65
0 5 -12 35 -27 67 -22 47 -27 73 -27 139 -1 80 -1 81 42 137 32 43 51 59 81
67 21 5 50 19 64 30 15 12 48 27 75 35 27 8 55 22 62 30 7 8 38 22 69 32 31 9
65 23 76 30 31 21 41 16 67 -29z"/>
<path d="M8075 9729 c-49 -11 -103 -25 -120 -31 -16 -5 -74 -23 -129 -39 -112
-33 -118 -36 -153 -96 -13 -24 -29 -43 -34 -43 -6 0 -16 -15 -24 -33 -7 -18
-23 -41 -35 -52 -12 -11 -28 -35 -36 -53 -7 -18 -27 -47 -44 -63 -16 -17 -30
-36 -30 -43 0 -7 -9 -21 -21 -32 -12 -10 -32 -40 -45 -66 -13 -27 -29 -48 -35
-48 -5 0 -16 -15 -24 -33 -7 -18 -23 -41 -35 -52 -12 -11 -29 -33 -37 -50 -9
-16 -24 -39 -34 -50 -10 -12 -21 -35 -25 -51 -5 -28 -1 -34 43 -66 26 -20 68
-41 93 -48 25 -6 54 -20 65 -29 53 -45 124 -54 156 -18 31 34 86 112 105 149
9 18 20 35 25 38 4 3 35 46 68 95 33 50 68 99 76 110 24 30 61 85 91 134 15
24 38 55 51 69 13 14 23 30 23 36 0 23 77 92 125 113 87 37 105 37 169 3 32
-16 66 -30 75 -30 9 0 32 -11 51 -25 18 -13 57 -31 86 -40 29 -8 56 -20 60
-26 3 -6 25 -19 48 -28 60 -26 70 -42 56 -86 -13 -40 -27 -49 -105 -70 -73
-19 -131 -7 -232 46 -41 22 -80 39 -88 39 -36 0 -84 -34 -101 -72 -16 -36 -16
-41 -2 -72 14 -27 30 -39 95 -65 43 -18 95 -47 116 -66 33 -29 39 -40 44 -87
4 -46 2 -58 -21 -88 -14 -19 -30 -47 -36 -61 -6 -14 -33 -43 -61 -64 -47 -36
-54 -38 -127 -39 -67 -1 -82 2 -117 25 -50 32 -128 59 -171 59 -23 0 -38 -8
-53 -26 -12 -15 -21 -31 -21 -36 0 -5 -9 -18 -20 -30 -11 -12 -20 -25 -20 -30
0 -4 21 -19 48 -33 26 -14 58 -32 72 -40 69 -38 199 -95 215 -95 10 0 29 -10
41 -21 35 -32 103 -36 165 -10 28 12 83 28 122 36 118 22 239 70 259 101 9 15
24 32 33 36 40 23 55 119 33 219 -27 127 -5 170 93 183 113 14 201 62 236 128
12 22 33 53 46 67 24 26 50 98 41 112 -6 11 -185 99 -200 99 -6 0 -22 8 -35
19 -13 10 -49 26 -79 36 -30 10 -65 26 -78 36 -13 10 -46 25 -74 35 -28 9 -67
27 -86 40 -19 13 -41 24 -49 24 -9 0 -41 13 -72 30 -31 16 -76 37 -101 45 -24
9 -51 22 -60 29 -13 13 -108 50 -150 61 -8 2 -55 -6 -105 -16z"/>
<path d="M4090 7741 c-14 -5 -34 -13 -45 -19 -11 -6 -47 -18 -80 -27 -33 -9
-73 -27 -90 -39 -16 -13 -40 -26 -52 -30 -31 -10 -238 -216 -248 -246 -4 -14
-18 -37 -30 -51 -12 -15 -27 -42 -34 -60 -7 -19 -23 -54 -36 -79 -13 -25 -32
-88 -44 -140 -11 -52 -25 -113 -30 -135 -13 -48 -13 -210 -1 -280 37 -216 76
-333 167 -500 52 -96 220 -277 287 -309 17 -8 40 -24 51 -36 10 -11 22 -20 27
-20 5 0 41 -16 80 -35 77 -39 211 -64 340 -65 92 0 258 29 289 51 14 10 45 25
70 35 24 9 54 28 67 40 13 13 27 24 32 24 24 0 230 227 230 253 0 6 13 31 29
56 16 25 35 66 41 90 6 24 20 56 30 70 30 41 44 168 43 381 -1 164 -4 208 -22
274 -12 44 -25 82 -29 85 -5 4 -14 28 -21 54 -12 50 -95 222 -111 232 -6 4
-19 23 -29 43 -19 37 -165 192 -181 192 -4 0 -30 18 -56 40 -27 22 -52 40 -57
40 -5 0 -23 11 -40 24 -18 14 -53 29 -77 35 -25 5 -75 21 -113 35 -60 23 -81
26 -200 25 -72 0 -143 -4 -157 -8z"/>
<path d="M6776 7734 c-21 -8 -44 -18 -50 -23 -6 -5 -32 -12 -58 -15 -27 -4
-60 -17 -75 -30 -16 -12 -47 -30 -70 -40 -23 -10 -52 -29 -64 -42 -12 -13 -26
-24 -30 -24 -10 0 -111 -102 -173 -174 -58 -69 -181 -310 -191 -374 -4 -26
-16 -74 -27 -107 -17 -48 -22 -94 -25 -227 -5 -156 -4 -172 20 -255 14 -48 28
-106 32 -128 4 -22 23 -70 41 -106 19 -36 34 -70 34 -76 0 -5 16 -30 35 -54
19 -24 35 -49 35 -54 0 -14 150 -165 191 -192 19 -13 54 -33 79 -45 25 -13 61
-33 80 -45 110 -68 495 -67 615 2 22 13 51 26 65 30 14 5 45 23 69 41 24 19
49 34 55 34 18 0 198 190 242 255 54 80 122 225 130 277 4 24 15 54 25 68 28
39 40 135 41 332 1 191 -10 280 -41 334 -10 16 -21 48 -25 70 -4 21 -20 59
-34 84 -15 25 -36 61 -47 82 -34 61 -74 117 -118 163 -64 67 -149 135 -167
135 -9 0 -25 9 -35 20 -10 11 -62 34 -116 51 -55 17 -102 35 -105 40 -9 15
-294 9 -338 -7z"/>
<path d="M1852 6205 c-64 -16 -199 -73 -227 -96 -11 -9 -28 -20 -37 -25 -70
-37 -244 -235 -247 -281 -1 -7 -12 -28 -25 -48 -14 -20 -28 -57 -32 -83 -3
-26 -17 -78 -29 -117 -35 -105 -39 -350 -7 -411 14 -28 30 -83 37 -134 4 -25
19 -67 34 -95 16 -27 34 -68 41 -90 7 -22 20 -49 30 -60 10 -11 23 -31 30 -44
15 -30 170 -221 179 -221 3 0 24 -17 46 -38 62 -57 116 -97 160 -117 22 -10
53 -27 68 -38 15 -10 44 -23 65 -29 20 -5 56 -19 80 -29 63 -29 134 -40 268
-40 129 0 240 14 264 36 8 7 40 20 71 29 31 9 62 23 70 32 7 8 29 24 48 34 20
10 51 32 69 49 18 17 37 31 43 31 5 0 9 4 9 9 0 4 17 28 38 52 21 24 49 63 62
87 13 23 27 42 31 42 4 0 20 18 37 40 26 36 31 38 48 26 17 -13 19 -34 26
-218 4 -129 12 -219 21 -247 21 -66 6 -115 -47 -153 -23 -16 -52 -43 -64 -59
-28 -35 -20 -51 35 -70 37 -12 63 -54 63 -102 0 -32 -27 -97 -40 -97 -6 0 -16
-12 -22 -27 -7 -16 -27 -49 -45 -74 -18 -26 -33 -51 -33 -57 0 -6 -12 -25 -26
-42 -26 -30 -63 -94 -104 -177 -11 -23 -25 -45 -31 -49 -6 -3 -24 -34 -40 -68
-16 -33 -36 -72 -44 -86 -8 -14 -23 -41 -32 -61 -10 -20 -29 -58 -42 -85 -85
-171 -146 -306 -157 -348 -7 -26 -20 -56 -28 -65 -8 -9 -22 -43 -31 -76 -8
-32 -26 -79 -39 -104 -13 -25 -27 -66 -31 -91 -4 -24 -16 -65 -27 -90 -27 -61
-36 -93 -48 -168 -6 -34 -19 -79 -29 -100 -11 -21 -24 -81 -31 -137 -6 -55
-20 -155 -31 -223 -23 -145 -23 -203 -4 -297 8 -38 20 -97 25 -129 6 -32 16
-68 21 -79 29 -53 85 -113 121 -129 22 -10 42 -27 45 -38 5 -19 14 -20 144
-20 105 0 140 3 146 14 13 22 47 35 124 46 104 15 171 31 194 46 11 7 56 19
100 28 44 8 105 26 135 39 30 14 75 28 98 32 24 4 73 20 108 36 35 16 73 29
85 29 12 0 56 16 99 35 43 19 88 35 101 35 13 0 49 12 79 26 30 14 92 34 138
45 45 10 93 25 105 33 12 8 58 21 102 30 44 8 98 22 120 32 22 9 81 25 132 35
51 10 108 25 127 33 19 8 70 19 113 26 158 22 219 33 244 46 46 23 606 60 751
50 51 -3 140 -8 198 -12 262 -13 391 -26 465 -44 44 -11 134 -26 200 -34 66
-8 137 -22 157 -30 20 -9 78 -23 128 -32 50 -8 119 -26 153 -39 35 -13 89 -28
121 -34 32 -6 83 -22 112 -36 29 -14 60 -25 69 -25 10 0 56 -15 104 -33 107
-42 194 -72 293 -102 43 -13 90 -31 106 -39 16 -8 62 -22 102 -30 40 -9 90
-24 111 -35 21 -11 69 -25 106 -32 37 -6 94 -22 126 -36 32 -13 104 -30 160
-38 115 -17 147 -28 147 -50 0 -13 22 -15 145 -15 122 0 145 2 145 15 0 8 18
26 39 39 61 39 88 70 125 149 47 98 54 146 51 369 -3 199 -8 244 -44 362 -11
38 -25 105 -31 149 -6 44 -18 89 -26 101 -7 12 -23 60 -35 106 -11 46 -28 97
-36 114 -9 17 -22 56 -29 88 -8 32 -27 83 -44 114 -16 31 -30 66 -30 78 0 12
-11 40 -24 63 -13 23 -29 59 -36 80 -16 52 -33 87 -47 96 -6 4 -14 22 -18 40
-4 17 -22 59 -39 92 -18 33 -39 76 -47 95 -7 19 -24 50 -36 69 -13 19 -26 46
-30 60 -3 14 -13 35 -23 46 -10 11 -29 43 -42 70 -41 83 -72 137 -90 156 -9 9
-25 37 -36 62 -11 25 -27 53 -36 63 -24 27 -106 153 -106 162 0 5 -13 21 -30
37 -16 16 -30 35 -30 42 0 7 -16 30 -35 50 -19 20 -35 41 -35 46 0 5 -13 26
-30 46 -35 42 -75 93 -173 217 -116 146 -138 172 -209 246 -38 39 -68 74 -68
78 0 3 -11 13 -25 20 -13 7 -27 22 -31 32 -3 11 -16 24 -28 29 -13 6 -30 24
-40 40 -9 16 -22 29 -27 29 -5 0 -33 23 -60 50 -45 45 -121 107 -183 150 -11
8 -38 28 -58 45 -75 62 -226 165 -242 165 -4 0 -24 13 -42 30 -19 16 -47 33
-62 36 -15 4 -43 20 -62 36 -19 15 -41 28 -48 28 -15 0 -75 29 -82 41 -3 4
-28 16 -55 27 -67 26 -85 60 -85 167 -1 91 -12 154 -32 166 -41 26 -129 0
-313 -94 -89 -45 -141 -54 -248 -44 -126 12 -409 2 -472 -17 -27 -8 -100 -24
-162 -35 -61 -11 -129 -27 -150 -36 -21 -10 -69 -26 -108 -37 -38 -10 -83 -27
-100 -37 -16 -9 -55 -25 -85 -35 -30 -10 -67 -29 -83 -42 -16 -13 -35 -24 -43
-24 -9 0 -34 -13 -57 -28 -23 -15 -71 -42 -107 -59 l-65 -30 -180 3 c-154 4
-186 7 -222 24 -24 11 -48 20 -55 20 -6 0 -50 18 -97 41 -47 22 -115 54 -151
71 -122 57 -200 100 -265 143 -29 19 -58 35 -64 35 -5 0 -16 8 -23 18 -7 11
-23 24 -35 30 -12 7 -63 52 -115 101 -87 84 -97 91 -158 105 -51 12 -71 22
-92 48 -16 18 -28 40 -28 50 0 9 -8 22 -17 27 -10 5 -45 41 -78 80 -33 39 -62
71 -66 71 -4 0 -23 15 -42 33 -58 53 -99 82 -149 105 -27 12 -48 26 -48 30 0
5 -19 14 -42 21 -24 7 -66 23 -94 36 -28 13 -80 29 -115 34 -87 15 -312 12
-377 -4z m4408 -976 c16 -167 9 -274 -24 -343 -14 -29 -30 -83 -37 -122 -6
-38 -22 -99 -35 -135 -34 -93 -35 -263 -2 -335 23 -52 24 -82 7 -155 -9 -41
-8 -52 10 -86 11 -22 32 -48 46 -57 25 -17 26 -20 20 -79 -8 -82 19 -169 71
-232 44 -52 142 -131 182 -146 15 -5 60 -26 100 -46 l74 -37 161 2 c89 1 193
0 230 -4 61 -5 72 -10 103 -42 19 -19 34 -39 34 -44 0 -5 -12 -13 -27 -19 -87
-35 -95 -46 -68 -91 11 -19 14 -33 8 -39 -5 -5 -62 -12 -126 -16 -120 -6 -146
-16 -133 -48 3 -8 21 -25 41 -36 40 -24 42 -34 16 -68 -13 -17 -17 -35 -14
-61 3 -24 -1 -49 -12 -70 l-17 -32 49 -47 c27 -25 60 -53 73 -63 21 -13 23
-19 14 -35 -8 -14 -25 -19 -70 -20 -144 -7 -158 -22 -76 -84 68 -51 162 -147
162 -165 0 -7 -15 -18 -34 -24 -42 -14 -50 -33 -31 -71 19 -35 15 -42 -35 -74
-28 -18 -39 -33 -44 -60 -5 -25 -17 -42 -41 -58 -21 -14 -40 -38 -50 -64 -13
-32 -22 -43 -38 -43 -12 0 -27 -4 -34 -8 -18 -12 -18 -63 1 -97 9 -16 16 -46
16 -65 1 -68 16 -106 60 -147 l43 -40 27 30 c23 26 31 29 63 23 21 -4 51 -19
67 -34 16 -15 50 -43 76 -62 25 -19 59 -47 74 -62 15 -16 31 -28 34 -28 13 0
23 73 18 138 -5 82 2 97 52 106 36 7 46 21 46 66 0 42 16 49 88 37 75 -12 77
-10 87 71 6 46 13 61 46 93 21 21 39 45 39 52 0 8 15 20 33 27 17 6 41 16 53
20 15 6 23 20 27 48 9 52 27 66 77 58 37 -6 41 -4 51 21 5 14 7 40 3 55 -7 34
16 57 57 58 37 0 52 22 53 78 1 46 2 47 38 56 74 18 287 -63 470 -179 45 -29
97 -108 78 -120 -15 -9 -18 -60 -4 -87 22 -42 17 -56 -23 -75 -25 -12 -40 -28
-47 -50 -17 -50 -30 -59 -69 -45 -48 17 -110 24 -126 13 -18 -12 -9 -46 24
-95 14 -21 25 -46 23 -55 -4 -22 -36 -26 -57 -7 -10 9 -45 26 -77 37 -32 11
-68 27 -80 34 -12 7 -37 17 -56 20 -43 8 -57 -15 -33 -51 23 -36 18 -52 -25
-74 -42 -22 -50 -39 -25 -60 21 -18 20 -60 -2 -61 -10 0 -34 -1 -53 -2 -29 -2
-36 -6 -38 -25 -2 -14 5 -33 16 -45 11 -12 28 -38 37 -57 10 -19 28 -48 40
-65 24 -32 73 -161 65 -169 -3 -2 -40 0 -81 6 -74 10 -78 10 -133 -18 l-56
-28 -42 21 c-24 11 -59 24 -78 28 -19 4 -55 18 -80 30 -25 12 -69 28 -99 34
-30 6 -75 21 -100 32 -55 25 -142 49 -177 49 -15 0 -40 6 -57 14 -43 19 -93
33 -147 41 -25 4 -94 20 -155 35 -60 16 -144 32 -185 35 -41 4 -100 13 -130
21 -30 8 -66 17 -80 20 -14 3 -32 7 -40 9 -8 2 -76 9 -150 15 -187 15 -241 20
-270 25 -213 34 -252 36 -450 32 -136 -4 -230 -11 -280 -22 -41 -9 -145 -20
-230 -25 -85 -5 -180 -16 -210 -25 -30 -9 -107 -25 -170 -36 -63 -11 -129 -26
-147 -34 -18 -8 -60 -21 -95 -30 -60 -15 -124 -37 -160 -56 -9 -5 -57 -17
-107 -28 -49 -11 -109 -30 -132 -42 -25 -12 -70 -24 -105 -27 l-62 -5 -30 42
c-38 52 -38 55 -57 271 -8 96 -19 191 -25 210 -6 19 -13 78 -17 130 -5 86 -3
100 18 150 21 49 24 68 22 175 -1 66 -7 140 -13 165 -6 25 -21 86 -32 135 -11
50 -28 99 -38 110 -10 11 -25 35 -34 53 -9 17 -21 32 -26 32 -5 0 -29 24 -53
54 -34 42 -47 68 -56 115 -7 34 -23 83 -37 110 -13 27 -24 56 -24 64 0 8 -7
21 -17 28 -30 26 -41 70 -36 144 3 39 10 76 16 83 12 16 -19 53 -42 50 -22 -4
-31 56 -28 194 1 64 -1 120 -5 124 -4 4 -3 13 3 20 7 9 6 21 -5 41 -8 15 -15
24 -16 18 0 -5 -5 -3 -10 5 -15 24 -12 58 11 103 23 44 23 45 17 330 -2 70 1
128 5 130 5 1 3 23 -3 47 -7 25 -13 65 -12 90 0 25 -2 35 -5 23 -3 -14 -12
-23 -24 -23 -10 0 -19 1 -20 3 0 1 -3 49 -5 106 -4 79 -3 106 7 112 8 4 10 11
6 15 -3 4 -13 1 -21 -5 -11 -10 -16 -9 -23 2 -4 7 -16 17 -27 20 -10 4 -16 13
-13 21 3 8 -1 17 -9 20 -8 3 -13 9 -12 13 1 4 -3 18 -10 31 -7 12 -9 22 -5 21
20 -3 34 2 28 11 -4 6 -15 8 -25 5 -15 -5 -23 3 -39 38 -11 25 -27 47 -36 51
-12 4 -13 10 -7 23 5 10 13 48 16 84 7 62 9 66 29 61 12 -3 27 -13 34 -21 6
-9 20 -16 30 -16 10 0 22 -10 28 -23 5 -12 18 -25 28 -28 9 -3 14 -10 11 -16
-5 -7 -2 -8 5 -4 7 5 20 1 29 -7 9 -9 19 -15 22 -15 19 2 110 -48 115 -63 4
-10 11 -19 16 -19 5 0 49 -40 97 -89 122 -124 137 -141 157 -181 19 -38 55
-86 96 -128 14 -15 31 -37 38 -50 6 -12 27 -29 46 -37 19 -7 35 -18 35 -24 0
-5 12 -14 28 -21 65 -27 90 -48 62 -51 -5 -1 -14 -3 -20 -4 -5 -1 -39 -3 -74
-4 -83 -1 -97 -14 -89 -80 5 -42 2 -51 -20 -72 -18 -16 -27 -37 -29 -64 -3
-36 -6 -40 -39 -50 -41 -11 -69 -32 -69 -50 0 -6 18 -37 40 -69 22 -31 40 -59
40 -63 0 -3 -27 -32 -60 -65 -33 -32 -60 -63 -60 -68 0 -5 -13 -16 -28 -24
-15 -8 -33 -26 -40 -40 -9 -19 -19 -26 -41 -26 -16 0 -34 -7 -41 -15 -17 -20
-14 -141 4 -166 7 -10 39 -32 71 -49 52 -27 62 -30 87 -19 37 15 52 2 55 -48
1 -23 11 -46 28 -63 16 -17 29 -44 32 -69 3 -22 10 -41 14 -41 5 0 9 -4 9 -10
0 -5 17 -26 38 -47 26 -28 60 -47 115 -67 75 -26 80 -26 98 -10 12 11 19 30
19 54 0 52 16 63 88 54 104 -11 194 37 267 143 26 40 34 110 14 130 -13 13
-64 -4 -104 -35 -27 -22 -38 -23 -116 -20 -78 3 -89 6 -120 33 -57 49 -70 73
-80 146 -9 60 -8 75 8 106 10 20 35 45 56 56 36 20 39 21 48 4 6 -9 19 -17 29
-17 10 0 21 -4 24 -9 3 -5 34 -22 68 -39 35 -17 76 -44 92 -61 17 -17 38 -31
47 -31 10 0 21 -4 24 -10 9 -15 34 -12 52 6 27 26 56 13 79 -36 32 -67 48 -59
52 24 2 50 -1 75 -13 93 -21 32 -14 49 23 58 42 9 45 27 20 99 -12 34 -19 70
-15 79 4 10 23 27 43 39 35 21 54 51 54 89 0 26 -36 106 -53 116 -23 15 -37
41 -31 57 3 9 11 13 18 10 6 -3 2 2 -8 10 -11 9 -23 16 -28 16 -4 0 -8 16 -8
35 0 31 -3 35 -26 35 -51 0 -86 39 -48 54 8 3 12 10 9 16 -11 18 8 11 32 -11
20 -20 23 -20 29 -5 3 9 15 16 25 16 10 0 19 5 19 10 0 6 15 10 34 10 26 0 40
-7 58 -29 13 -16 33 -34 46 -40 12 -6 22 -17 22 -25 0 -7 16 -31 35 -53 19
-23 35 -46 35 -51 0 -29 43 -103 87 -149 36 -37 54 -67 62 -99 9 -36 17 -47
40 -55 37 -13 44 -47 23 -119 -8 -30 -16 -78 -17 -106 -1 -33 -9 -62 -22 -80
-16 -23 -22 -52 -27 -140 -4 -62 -4 -123 -1 -137 9 -35 34 -42 60 -17 30 28
83 26 126 -6 56 -42 96 -54 180 -54 72 0 79 -2 79 -19 0 -11 -4 -23 -10 -26
-15 -9 -12 -52 5 -69 8 -8 15 -18 15 -23 0 -15 40 -33 85 -40 39 -5 55 -1 110
27 l65 33 62 -26 c73 -32 74 -31 172 67 34 33 84 80 112 103 41 34 54 52 63
90 7 27 21 78 33 114 19 58 20 71 9 116 -10 40 -10 64 0 112 17 87 1 136 -67
207 -58 60 -60 64 -42 97 15 27 19 185 6 211 -6 10 -26 32 -45 49 -30 26 -34
35 -29 61 4 17 11 54 15 83 5 29 16 62 25 75 9 12 16 39 16 58 0 41 46 122 79
140 12 6 21 17 21 26 0 19 -30 30 -110 39 -74 8 -90 17 -90 51 0 52 20 73 91
94 44 13 70 27 73 38 5 17 12 55 20 105 7 39 58 105 98 127 32 17 35 24 27 64
-3 13 4 24 21 33 43 22 56 -7 70 -158z m-1901 -708 c9 -16 8 -18 -8 -14 -12 3
-17 11 -14 19 7 18 10 18 22 -5z m56 -11 c-3 -5 -14 -10 -23 -9 -14 0 -13 2 3
9 27 11 27 11 20 0z m-134 -60 c20 0 1 -45 -20 -48 -17 -3 -20 -7 -12 -16 16
-19 -13 -56 -30 -38 -10 9 -10 12 -1 12 7 0 12 5 12 10 0 6 -9 10 -19 10 -24
0 -38 19 -21 30 6 4 10 10 8 14 -5 11 45 36 60 31 8 -3 18 -5 23 -5z m209 -50
c0 -11 -3 -20 -8 -20 -4 0 -13 9 -20 20 -11 18 -10 20 8 20 13 0 20 -7 20 -20z
m-479 -193 c-10 -9 -11 -8 -5 6 3 10 9 15 12 12 3 -3 0 -11 -7 -18z m1348
-342 c19 -11 33 -105 27 -177 -6 -69 -8 -75 -44 -105 -64 -55 -153 -75 -223
-51 -35 12 -129 85 -129 100 0 31 143 188 172 188 25 0 43 -47 29 -78 -16 -34
-13 -57 8 -76 18 -16 20 -16 40 10 22 29 27 59 11 69 -5 3 -10 26 -10 51 0 58
26 86 75 79 20 -2 39 -7 44 -10z"/>
<path d="M3042 5160 c0 -14 2 -19 5 -12 2 6 2 18 0 25 -3 6 -5 1 -5 -13z"/>
<path d="M3252 4753 c-9 -16 -8 -24 7 -37 29 -27 43 4 17 39 -13 18 -14 18
-24 -2z"/>
<path d="M3320 4715 c0 -14 4 -25 9 -25 4 0 6 11 3 25 -2 14 -6 25 -8 25 -2 0
-4 -11 -4 -25z"/>
<path d="M4590 4325 c0 -14 2 -25 4 -25 2 0 6 11 8 25 3 14 1 25 -3 25 -5 0
-9 -11 -9 -25z"/>
<path d="M3303 4292 c0 -12 5 -22 9 -22 11 0 10 12 -2 30 -7 12 -9 10 -7 -8z"/>
<path d="M4053 3779 c-17 -17 -5 -70 19 -91 24 -22 61 -23 77 -4 10 11 5 20
-24 41 -19 15 -35 36 -35 46 0 21 -20 25 -37 8z"/>
<path d="M8978 6209 c-31 -4 -74 -17 -95 -28 -21 -10 -58 -24 -83 -31 -25 -6
-58 -22 -75 -34 -16 -13 -39 -26 -51 -30 -28 -9 -218 -154 -236 -181 -3 -5
-37 -49 -75 -96 -37 -48 -77 -102 -88 -120 -46 -77 -64 -115 -65 -132 0 -10
-11 -33 -24 -50 -15 -20 -28 -58 -36 -102 -6 -38 -20 -96 -31 -129 -16 -46
-20 -86 -20 -185 -1 -133 2 -151 32 -243 11 -32 19 -68 19 -80 0 -27 74 -179
110 -227 81 -107 256 -251 325 -267 17 -4 53 -19 80 -33 49 -25 54 -26 250
-26 173 0 205 2 240 18 22 10 72 30 110 43 39 13 76 32 83 41 7 10 15 17 17
16 10 -5 81 31 110 54 98 79 128 106 169 154 26 30 62 71 81 92 19 22 35 44
35 50 1 7 14 28 30 47 17 19 30 39 30 44 0 5 13 30 29 55 16 25 34 71 41 101
7 30 21 66 31 80 11 14 23 48 28 75 16 90 22 288 12 414 -8 105 -15 134 -39
185 -17 34 -33 72 -37 86 -4 14 -13 32 -20 40 -7 8 -24 35 -38 60 -33 56 -152
182 -192 203 -16 8 -40 25 -53 37 -12 12 -47 30 -76 40 -30 10 -65 25 -78 33
-12 9 -50 20 -82 26 -68 13 -284 13 -368 0z"/>
<path d="M2698 3 c1486 -2 3918 -2 5405 0 1486 1 270 2 -2703 2 -2973 0 -4189
-1 -2702 -2z"/>
</g>
</svg>
